<svg width="100" height="80" viewBox="0 0 64 64" xmlns="http://www.w3.org/2000/svg" aria-hidden="true" class="iconify iconify--fxemoji" transform="scale(-1 1)">
  <path fill="#A97DFF" d="M56.613 60.427H43.952V10.114a2.798 2.798 0 0 1 2.798-2.798h7.065a2.798 2.798 0 0 1 2.798 2.798v50.313z"/>
  <path fill="#FF473E" d="M22.995 60.427H10.334V17.174a2.798 2.798 0 0 1 2.798-2.798h7.065a2.798 2.798 0 0 1 2.798 2.798v43.254z"/>
  <path fill="#00B1FF" d="M39.804 60.427H27.142V37.023a2.798 2.798 0 0 1 2.798-2.798h7.065a2.798 2.798 0 0 1 2.798 2.798v23.404z"/>
  <path fill="#A97DFF" d="M56.613 60.427H43.952V10.114a2.798 2.798 0 0 1 2.798-2.798h7.065a2.798 2.798 0 0 1 2.798 2.798v50.313z"/>
</svg>