<svg width="100" height="80" viewBox="0 0 100 100" xmlns="http://www.w3.org/2000/svg">
  <defs>
    <style>
      .cls-1{fill:#bbacf1}
    </style>
  </defs>
  <g data-name="22. Video Consultation" id="_22._Video_Consultation">
    <path class="cls-1" d="M59.375 87.5h-18.75a3.125 3.125 0 0 1-3.125-3.125v-6.25A3.125 3.125 0 0 1 40.625 75h18.75a3.125 3.125 0 0 1 3.125 3.125v6.25a3.125 3.125 0 0 1-3.125 3.125ZM43.75 81.25Z"/>
    <path d="M96.875 75V21.875A9.375 9.375 0 0 0 87.5 12.5h-9.375a3.125 3.125 0 0 0 0 6.25H87.5a3.125 3.125 0 0 1 3.125 3.125V75H81.25V59.375A15.625 15.625 0 0 0 65.625 43.75h-1.688a18.75 18.75 0 0 0 4.813-12.5V13.594a9.375 9.375 0 0 0-5.906-8.688L51.156.219a3.125 3.125 0 0 0-2.313 0L37.155 4.907a9.375 9.375 0 0 0-5.905 8.687V31.25a18.75 18.75 0 0 0 4.813 12.5h-1.688A15.625 15.625 0 0 0 18.75 59.375V75H9.375V21.875A3.125 3.125 0 0 1 12.5 18.75h9.375a3.125 3.125 0 0 0 0-6.25H12.5a9.375 9.375 0 0 0-9.375 9.375V75A3.125 3.125 0 0 0 0 78.125v6.25A15.625 15.625 0 0 0 15.625 100h68.75A15.625 15.625 0 0 0 100 84.375v-6.25A3.125 3.125 0 0 0 96.875 75ZM37.5 13.594a3.125 3.125 0 0 1 1.969-2.875L50 6.5l10.531 4.219a3.125 3.125 0 0 1 1.969 2.875v5.156h-25Zm0 17.656V25h25v6.25a12.5 12.5 0 0 1-25 0ZM25 59.375A9.375 9.375 0 0 1 34.375 50h12.5v6.25a3.125 3.125 0 0 0 6.25 0V50h12.5A9.375 9.375 0 0 1 75 59.375V75H25Zm68.75 25a9.375 9.375 0 0 1-9.375 9.375h-68.75a9.375 9.375 0 0 1-9.375-9.375V81.25h87.5Z" style="fill:#A97DFF"/>
    <path class="cls-1" d="M68.75 62.5a3.125 3.125 0 0 1-3.125 3.125 3.125 3.125 0 0 1-6.25 0 3.125 3.125 0 0 1 0-6.25 3.125 3.125 0 0 1 6.25 0A3.125 3.125 0 0 1 68.75 62.5Zm-12.5-43.75A6.25 6.25 0 0 1 50 25a6.25 6.25 0 0 1-6.25-6.25 6.25 6.25 0 0 1 12.5 0z"/>
  </g>
</svg>
